<svg xmlns="http://www.w3.org/2000/svg" viewBox="0 0 24 24"><g transform="translate(-4.406250 0.429487) scale(0.039062)" vector-effect="non-scaling-stroke"><g transform="translate(0.000000,592.000000) scale(0.100000,-0.100000)" fill="currentColor" stroke="none">
<path d="M3355 5506 c-166 -27 -386 -101 -555 -186 -539 -270 -958 -781 -1110 -1354 -76 -286 -64 -542 35 -777 175 -415 606 -629 1116 -553 168 24 338 23 451 -4 304 -74 514 -289 584 -599 23 -102 23 -271 -1 -432 -63 -434 80 -814 385 -1021 90 -61 233 -126 330 -150 468 -116 1113 121 1566 574 262 262 444 570 546 921 145 502 7 962 -365 1214 -198 134 -503 191 -782 146 -156 -26 -334 -24 -450 4 -291 70 -506 285 -576 576 -27 112 -29 302 -5 450 94 584 -209 1064 -748 1181 -97 22 -321 27 -421 10z m420 -185 c424 -108 652 -491 582 -976 -26 -180 -30 -254 -18 -368 46 -425 293 -728 685 -841 167 -49 326 -55 556 -20 535 79 935 -197 1001 -691 44 -334 -108 -770 -391 -1125 -78 -97 -254 -272 -350 -347 -223 -174 -496 -303 -760 -360 -123 -26 -346 -23 -455 6 -108 28 -246 98 -323 163 -216 182 -311 489 -257 823 24 144 24 360 1 469 -67 306 -239 534 -502 665 -215 107 -432 133 -719 86 -180 -30 -374 -13 -523 45 -372 144 -559 543 -467 996 137 671 735 1290 1415 1464 174 44 376 48 525 11z" />
<path d="M3376 5135 c-493 -94 -976 -473 -1211 -950 -209 -425 -204 -803 15 -1022 151 -150 369 -203 648 -157 144 24 370 22 499 -5 471 -98 790 -409 910 -888 24 -96 27 -127 27 -278 0 -122 -4 -194 -17 -254 -51 -246 7 -492 148 -632 193 -191 469 -229 815 -113 517 173 941 597 1114 1114 113 338 78 616 -100 800 -151 157 -357 209 -647 164 -151 -24 -376 -21 -504 5 -483 100 -814 430 -914 914 -27 130 -29 356 -5 499 20 121 20 260 1 353 -44 210 -198 377 -405 440 -78 23 -274 29 -374 10z m280 -166 c174 -32 301 -157 334 -329 14 -76 12 -165 -7 -283 -24 -154 -22 -402 5 -542 38 -194 105 -361 209 -519 60 -91 248 -279 339 -339 158 -104 351 -180 539 -213 130 -23 381 -23 522 0 236 37 377 8 495 -102 155 -144 166 -414 32 -740 -77 -189 -173 -330 -334 -495 -217 -224 -441 -359 -712 -432 -243 -65 -444 -31 -562 95 -108 115 -138 269 -100 498 26 149 23 397 -5 540 -108 553 -497 945 -1054 1064 -130 27 -398 30 -554 4 -233 -37 -378 -8 -493 100 -126 118 -160 319 -95 563 49 181 140 367 259 524 82 109 287 304 395 375 276 181 576 270 787 231z" />
<path d="M4715 4206 c-14 -163 21 -328 96 -452 71 -118 216 -221 364 -259 141 -36 342 -28 378 16 23 28 22 81 -2 110 -18 23 -25 24 -158 25 -111 1 -151 6 -205 23 -210 67 -324 264 -302 522 7 88 10 85 -96 95 l-68 7 -7 -87z" />
<path d="M2922 2441 c-56 -10 -86 -40 -86 -87 0 -28 7 -42 29 -61 27 -24 33 -25 114 -18 179 13 324 -36 423 -144 93 -100 124 -212 114 -407 -6 -112 -5 -122 14 -142 40 -43 103 -37 136 13 26 40 32 246 10 355 -50 245 -208 413 -447 475 -71 19 -243 28 -307 16z" />
</g>
</g></svg>