<svg xmlns="http://www.w3.org/2000/svg" viewBox="0 0 24 24"><g transform="translate(-1.333333 -1.339844) scale(0.027211)" vector-effect="non-scaling-stroke"><g transform="translate(0.000000,980.000000) scale(0.100000,-0.100000)" fill="currentColor" stroke="none">
<path d="M6385 8365 c-193 -42 -446 -190 -708 -414 -172 -147 -277 -252 -384 -384 -186 -231 -365 -452 -372 -460 -4 -4 -108 117 -231 270 -238 295 -337 402 -517 555 -336 285 -607 418 -852 418 -181 0 -290 -48 -429 -185 -92 -92 -94 -93 -198 -129 -236 -82 -500 -243 -665 -406 -175 -174 -364 -471 -459 -723 -34 -89 -42 -102 -80 -127 -58 -39 -143 -123 -180 -177 -207 -314 -26 -779 526 -1344 95 -97 151 -144 654 -550 151 -122 288 -233 304 -246 l29 -24 -29 -39 c-16 -21 -210 -279 -430 -572 -462 -613 -493 -657 -579 -833 -113 -229 -152 -426 -122 -608 40 -233 162 -437 393 -656 164 -155 328 -251 501 -292 121 -29 288 -23 418 15 120 36 285 117 420 206 115 76 1168 863 1455 1087 30 24 60 43 65 43 6 0 26 -13 45 -28 152 -124 1344 -1015 1447 -1082 269 -176 465 -245 688 -244 134 1 214 17 331 65 186 78 416 268 567 471 277 370 261 737 -53 1212 -39 60 -263 363 -497 675 -234 311 -426 570 -427 576 -1 6 121 110 269 230 149 120 350 283 447 363 426 345 749 777 824 1101 19 80 21 221 4 293 -26 111 -76 196 -175 294 -88 88 -93 95 -119 175 -15 46 -56 143 -91 214 -181 368 -388 583 -774 804 -115 65 -310 151 -344 151 -9 0 -36 28 -60 63 -94 131 -218 219 -345 246 -69 14 -192 13 -267 -4z m262 -296 c37 -18 113 -91 113 -108 0 -5 -100 -122 -249 -291 -32 -36 -159 -180 -282 -321 -539 -616 -780 -888 -787 -893 -5 -3 -84 89 -176 205 l-168 209 78 98 c349 434 444 545 552 645 425 395 731 546 919 456z m-3228 -14 c125 -30 290 -120 461 -254 211 -164 322 -278 561 -572 335 -415 653 -808 674 -837 11 -15 119 -151 240 -303 428 -537 544 -684 1025 -1304 407 -524 1237 -1629 1327 -1767 35 -53 83 -139 108 -190 152 -323 104 -547 -181 -832 -341 -341 -635 -363 -1065 -81 -87 57 -1052 778 -1379 1030 -63 49 -162 125 -220 169 -530 405 -1387 1082 -2250 1776 -553 445 -629 510 -742 634 -348 380 -507 676 -459 853 13 46 61 115 103 146 l27 20 203 -179 c112 -98 406 -356 653 -573 248 -217 608 -533 800 -702 193 -168 451 -395 575 -504 124 -108 257 -225 296 -260 39 -35 88 -75 109 -89 115 -79 265 39 212 166 -11 26 -107 117 -368 345 -195 171 -469 411 -609 534 -140 123 -491 431 -780 685 -289 253 -612 536 -718 629 -223 195 -211 169 -141 315 138 290 320 520 520 657 139 95 401 222 433 210 8 -3 108 -112 222 -243 115 -131 249 -283 298 -338 49 -56 100 -114 115 -131 27 -31 80 -91 841 -960 256 -291 552 -629 658 -750 106 -121 207 -228 225 -237 87 -48 190 8 204 110 9 66 30 39 -452 587 -320 364 -396 451 -1035 1180 -727 829 -810 924 -821 930 -19 12 -8 35 37 71 52 43 130 73 189 74 22 0 69 -7 104 -15z m3689 -318 c204 -90 435 -247 560 -382 93 -100 178 -228 252 -380 73 -151 89 -201 69 -220 -8 -7 -221 -195 -475 -417 -253 -221 -622 -544 -819 -717 -295 -259 -360 -312 -369 -300 -39 52 -458 584 -570 724 -74 94 -135 173 -133 176 2 6 319 369 777 889 85 97 252 288 370 423 118 136 221 246 227 247 7 0 57 -19 111 -43z m1102 -1244 c55 -62 75 -117 75 -208 0 -195 -138 -434 -448 -777 -95 -104 -139 -141 -846 -712 -85 -69 -158 -123 -163 -120 -12 8 -308 395 -308 403 0 4 190 174 423 378 232 204 602 529 822 722 220 193 403 351 406 351 4 0 22 -17 39 -37z m-4947 -2403 c108 -85 196 -158 196 -161 1 -3 -22 -16 -49 -29 -58 -27 -89 -59 -495 -500 -154 -167 -333 -361 -397 -430 -149 -158 -183 -219 -183 -330 1 -116 29 -167 178 -318 67 -68 140 -137 163 -152 93 -65 223 -75 327 -25 50 24 86 56 402 349 71 67 155 144 185 172 398 366 479 443 501 473 36 49 59 121 59 186 0 30 2 55 5 55 3 0 56 -40 117 -88 145 -113 379 -295 392 -304 6 -4 5 -12 -3 -22 -18 -21 -1304 -988 -1402 -1054 -103 -69 -249 -145 -334 -173 -59 -20 -90 -24 -195 -24 -106 0 -134 4 -181 23 -261 104 -554 432 -600 670 -26 140 12 326 103 492 77 141 105 179 927 1272 40 53 70 84 77 80 7 -4 100 -77 207 -162z" />
<path d="M6170 3914 c-25 -9 -65 -31 -90 -50 -54 -40 -317 -305 -349 -351 -78 -114 -68 -294 22 -395 17 -20 97 -96 177 -169 80 -73 174 -160 210 -193 36 -34 117 -108 180 -166 63 -57 147 -134 185 -170 68 -64 163 -152 235 -218 19 -18 60 -45 90 -60 46 -22 68 -27 135 -27 125 0 178 31 341 197 72 73 140 151 152 173 45 89 47 204 5 299 -10 23 -207 244 -498 559 -545 592 -531 580 -674 585 -50 1 -91 -3 -121 -14z" />
</g>
</g></svg>