<svg xmlns="http://www.w3.org/2000/svg" viewBox="0 0 24 24"><g transform="translate(0.330484 0.336182) scale(0.045584)" vector-effect="non-scaling-stroke"><g transform="translate(0.000000,512.000000) scale(0.100000,-0.100000)" fill="currentColor" stroke="none">
<path d="M2552 4748 c-373 -58 -928 -529 -1377 -1168 -218 -310 -318 -519 -362 -750 -24 -131 -24 -494 1 -665 47 -329 150 -738 276 -1100 11 -33 41 -141 66 -239 24 -99 56 -206 71 -238 37 -83 114 -151 200 -178 120 -37 280 -20 392 40 l55 30 495 0 c415 -1 499 -3 515 -15 45 -34 279 -97 359 -96 67 0 135 40 216 127 315 339 711 1187 842 1809 67 318 -12 670 -252 1110 -187 345 -459 698 -738 959 -307 287 -550 407 -759 374z m250 -200 c185 -88 403 -270 618 -515 302 -343 550 -750 668 -1094 105 -305 104 -462 -7 -856 -146 -516 -516 -1254 -746 -1490 -54 -56 -65 -63 -100 -63 -22 0 -56 4 -75 9 -19 6 -54 15 -77 21 l-43 11 0 73 0 74 61 4 c70 5 99 28 99 78 0 49 -29 72 -100 79 l-64 6 264 227 c146 125 277 245 291 265 15 21 91 160 170 308 118 223 157 288 227 374 108 133 125 163 125 216 0 67 -29 108 -148 205 -114 94 -157 115 -216 104 -47 -10 -457 -248 -496 -289 -50 -53 -57 -96 -33 -207 16 -69 18 -98 11 -115 -6 -13 -14 -23 -18 -22 -12 0 -113 145 -124 179 -9 24 -5 50 21 142 17 62 38 123 46 135 8 12 14 35 14 50 0 15 68 258 151 538 182 619 182 619 174 672 -10 69 -52 105 -168 142 -58 19 -118 31 -150 31 -111 0 -215 -53 -261 -133 -14 -23 -56 -145 -94 -271 -39 -125 -76 -233 -82 -240 -9 -8 -11 74 -8 349 l3 360 -24 48 c-29 59 -98 121 -158 141 -26 9 -77 16 -114 16 -125 0 -236 -82 -269 -198 -5 -20 -10 -89 -10 -152 -1 -111 -1 -114 -15 -76 -33 93 -104 148 -198 154 -55 4 -71 0 -124 -26 -33 -17 -73 -47 -89 -67 -16 -20 -46 -54 -66 -75 -47 -49 -50 -89 -11 -128 27 -26 28 -34 70 -377 23 -192 42 -360 43 -373 0 -18 -24 4 -102 95 -56 65 -117 139 -136 166 -19 26 -55 60 -81 75 -39 23 -57 27 -121 27 -86 0 -135 -21 -195 -80 -45 -46 -65 -94 -65 -161 0 -49 15 -83 198 -451 l199 -398 -13 -50 c-78 -298 -2 -723 187 -1047 21 -36 39 -71 39 -76 0 -5 -28 -12 -61 -14 -70 -5 -99 -28 -99 -78 0 -50 29 -73 99 -78 l61 -4 0 -78 0 -77 -31 -7 c-68 -13 -143 -6 -197 19 -46 21 -56 32 -77 77 -13 29 -42 127 -65 218 -22 91 -65 239 -95 330 -182 557 -258 945 -259 1315 -1 277 26 409 122 600 222 446 778 1083 1158 1328 167 107 281 148 404 145 74 -3 95 -8 162 -40z m-287 -614 c64 -30 64 -35 57 -468 l-7 -389 -27 -20 -26 -20 -96 79 -96 79 0 333 c0 364 2 376 58 406 36 20 96 20 137 0z m-537 -279 c18 -23 52 -188 41 -199 -3 -4 -140 104 -178 140 -10 10 12 51 36 66 41 25 78 23 101 -7z m1296 4 c61 -18 66 -22 60 -42 -9 -30 -8 -30 -203 -162 -137 -93 -171 -112 -165 -94 4 13 22 73 41 134 39 127 50 146 95 168 44 22 93 21 172 -4z m-1286 -394 c40 -33 75 -69 77 -80 3 -11 16 -96 30 -190 14 -93 28 -180 30 -192 4 -19 -9 -32 -85 -83 -85 -57 -90 -59 -94 -38 -7 34 -76 629 -76 656 0 27 -10 33 118 -73z m1177 -232 c-48 -164 -96 -328 -107 -365 l-20 -67 -116 96 c-65 53 -119 98 -121 99 -8 7 83 295 98 308 32 28 344 236 349 232 2 -2 -35 -139 -83 -303z m-1779 -60 c13 -16 120 -141 239 -280 225 -264 249 -284 294 -251 48 35 231 158 236 158 3 0 5 -9 5 -19 0 -36 43 -74 81 -73 58 1 79 37 79 131 l0 78 92 61 91 61 28 -22 28 -22 0 -133 c1 -127 2 -134 26 -157 33 -34 86 -34 113 0 11 14 25 48 32 75 7 28 15 50 18 50 5 0 198 -157 239 -194 2 -1 -11 -49 -28 -107 -38 -128 -41 -214 -12 -279 28 -60 165 -245 200 -267 16 -10 46 -18 71 -18 41 0 48 4 94 55 92 102 102 143 69 282 -10 42 -15 81 -12 85 7 11 400 233 411 233 4 0 46 -32 93 -71 l86 -71 -94 -117 c-81 -101 -116 -158 -248 -407 l-154 -289 -274 -237 c-151 -130 -282 -247 -291 -259 -10 -12 -18 -36 -18 -55 l0 -34 -520 0 -520 0 0 30 c0 17 -23 70 -55 127 -178 319 -243 671 -174 940 10 42 19 87 19 100 0 13 -90 204 -201 424 -138 276 -199 409 -197 427 4 33 59 72 101 72 20 0 37 -9 53 -27z m963 -7 l22 -23 -26 -17 -25 -16 0 40 c0 22 1 40 3 40 2 0 13 -11 26 -24z m531 -2286 l0 -40 -520 0 -520 0 0 40 0 40 520 0 520 0 0 -40z" />
</g>
</g></svg>