<svg xmlns="http://www.w3.org/2000/svg" viewBox="0 0 24 24"><g transform="translate(-25.188612 -8.200661) scale(0.024294)" vector-effect="non-scaling-stroke"><g transform="translate(0.000000,2000.000000) scale(0.100000,-0.100000)" fill="currentColor" stroke="none">
<path d="M12470 14405 c-281 -42 -492 -154 -700 -371 -151 -157 -266 -333 -371 -564 -151 -333 -217 -640 -190 -887 19 -173 45 -264 117 -403 111 -214 304 -407 576 -576 318 -196 845 -390 1368 -504 359 -78 577 -113 930 -149 252 -26 310 -34 370 -48 185 -42 387 -132 552 -245 57 -39 162 -131 275 -240 329 -318 628 -565 975 -806 462 -321 860 -520 1208 -606 183 -46 229 -51 430 -50 179 0 204 2 300 28 225 58 394 157 565 330 263 264 465 678 530 1083 19 116 19 302 1 413 -73 442 -378 800 -911 1070 -210 107 -536 232 -770 295 -33 9 -73 20 -90 25 -190 52 -454 113 -610 140 -305 53 -447 72 -655 90 -332 28 -465 60 -680 161 -169 80 -288 166 -450 324 -385 374 -731 659 -1095 902 -539 360 -944 538 -1335 588 -134 18 -223 18 -340 0z" />
</g>
</g></svg>